Coordinates
version=1
nRows=9
nColumns=36
inDegrees=yes

Units are S.I. units (second, meters, Newtons, ...)
If the header above contains a line with 'inDegrees', this indicates whether rotational values are in degrees (yes) or radians (no).

endheader
time	pelvis_tilt	pelvis_list	pelvis_rotation	pelvis_tx	pelvis_ty	pelvis_tz	hip_flexion_r	hip_adduction_r	hip_rotation_r	knee_angle_r	knee_angle_r_beta	ankle_angle_r	subtalar_angle_r	mtp_angle_r	hip_flexion_l	hip_adduction_l	hip_rotation_l	knee_angle_l	knee_angle_l_beta	ankle_angle_l	subtalar_angle_l	mtp_angle_l	lumbar_extension	lumbar_bending	lumbar_rotation	arm_flex_r	arm_add_r	arm_rot_r	elbow_flex_r	pro_sup_r	arm_flex_l	arm_add_l	arm_rot_l	elbow_flex_l	pro_sup_l
      6.51666670	    -15.65886669	     -2.94346156	      0.63917845	      0.52278487	      0.68912462	     -0.22771834	     67.75811365	    -21.06639531	     -9.94694669	     92.14741956	      1.60827587	     37.15462559	    -12.17031157	     -7.49999987	     70.94617338	    -26.34731288	     -7.73459184	     94.24610346	      1.64490481	     35.01867806	    -10.63874041	     -7.49999987	    -38.65125420	      3.41663281	     -2.49431498	     84.83361920	     16.66219306	     80.15292220	    118.39414784	     92.60951378	     67.49020909	      9.48781870	     75.79876545	    126.89670931	     98.36159067
      6.53333330	    -15.05924465	     -2.61707975	      0.62206204	      0.53643835	      0.69948925	     -0.22510106	     65.43562858	    -21.08409680	    -10.42690948	     90.39124507	      1.57762484	     37.05003713	    -12.05130290	     -7.49999987	     67.63536041	    -26.62797339	     -8.96249384	     91.75258549	      1.60138471	     35.64935118	     -8.78714668	     -7.49999987	    -36.84150085	      2.95820151	     -2.59319857	     83.32882345	     17.11763013	     80.94374591	    117.91302869	     92.74640858	     65.38767292	      9.77229505	     76.50145105	    126.35216089	     98.34970077
      6.55000000	    -14.29995711	     -2.38479473	      0.56604317	      0.53340149	      0.72164756	     -0.21918793	     62.49415306	    -20.57303987	    -11.40866252	     87.57314874	      1.52843978	     37.07930969	    -11.69538923	     -7.49999987	     64.32295997	    -26.66077591	    -10.35700461	     88.75188741	      1.54901265	     34.10710949	     -9.24209706	     -7.49999987	    -35.84569788	      2.20648375	     -2.43708593	     81.89549218	     17.03365161	     80.80578257	    117.58654269	     90.46030594	     64.82567512	     10.41588783	     76.29354534	    125.28650847	     94.98609817
      6.56666670	    -13.10324063	     -2.05857700	      0.64515458	      0.54178548	      0.73774372	     -0.21992573	     58.86435763	    -20.37663983	    -12.24835943	     84.51095460	      1.47499441	     36.49894875	    -11.44886023	     -7.49999987	     59.93557943	    -26.56114228	    -11.93679388	     85.17381412	      1.48656349	     34.04299395	     -7.58902939	     -7.49999987	    -34.95685454	      1.65121106	     -2.06810158	     80.02821404	     16.30816038	     80.07294698	    116.78045041	     90.95413356	     64.26272543	     10.25429840	     73.28107014	    124.72378581	     94.92740349
      6.58333330	    -12.28401322	     -1.75219965	      0.76646986	      0.54004943	      0.74552276	     -0.22494218	     56.34170212	    -20.58854707	    -12.95768212	     82.20429560	      1.43473562	     36.41313324	    -11.04023170	     -7.49999987	     57.11288934	    -25.99567720	    -13.30320435	     82.90733398	      1.44700595	     33.19194977	     -8.19917214	     -7.49999987	    -33.78786975	      1.44414129	     -2.40318182	     78.89973862	     15.92351343	     78.88508776	    116.54696119	     93.25238172	     64.81093876	      8.72364064	     64.43474312	    125.58090292	     94.08591343
      6.60000000	    -11.61261336	     -1.56556129	      0.54842858	      0.54541078	      0.76460740	     -0.22781387	     53.52486266	    -20.38741177	    -13.62917579	     78.97844562	      1.37843391	     35.51467197	    -10.26701211	     -7.49999987	     53.67600075	    -25.35244635	    -14.71790200	     79.47467447	      1.38709474	     33.48464817	     -6.80438758	     -7.49999987	    -32.42489757	      1.02770682	     -2.70518835	     77.44179483	     15.25708143	     77.45855869	    117.02687921	     97.77095453	     63.67003063	      7.67873979	     54.27165705	    125.47993139	     91.22576202
      6.61666670	    -11.26008702	     -1.36771871	      0.43700434	      0.54339787	      0.77841153	     -0.22234494	     51.27577853	    -20.15261738	    -14.38231921	     76.07895057	      1.32782818	     35.08902767	     -9.49417617	     -7.49999987	     51.13972542	    -24.75543611	    -15.97956538	     76.54485381	      1.33595972	     32.02336887	     -7.78434401	     -7.49999987	    -30.90783664	      0.79687189	     -2.89983167	     76.72982004	     15.56747448	     76.55541030	    116.91242414	     97.89891322	     61.64034605	      6.94294666	     45.29788818	    125.90705776	     89.83544823
      6.63333330	    -11.27174500	     -1.25337571	     -0.08509735	      0.54671233	      0.79048209	     -0.22316543	     49.26543440	    -19.53517809	    -14.86359336	     72.76079702	      1.26991547	     34.11612579	     -8.59149089	     -7.49999987	     48.61684871	    -24.35634209	    -17.11992486	     73.13776612	      1.27649483	     32.07662698	     -6.37167531	     -7.49999987	    -28.91083244	      0.27350777	     -2.75670484	     75.65758840	     15.51068469	     75.72692380	    117.55500677	     98.09775640	     59.73501172	      7.48977219	     38.90786055	    125.46417983	     88.87385491
      6.65000000	    -11.02537034	     -1.13663272	     -0.35417280	      0.55301208	      0.81489970	     -0.22186014	     46.08249666	    -18.76055381	    -15.81309291	     68.27357611	      1.19159870	     33.09257486	     -8.06103386	     -7.49999987	     45.66888736	    -23.75529630	    -18.64764717	     69.34113088	      1.21023104	     30.09930710	     -6.97290709	     -7.49999987	    -27.48093622	      0.05794897	     -2.58168704	     74.88022180	     15.59038159	     76.19171420	    117.22091527	     97.22181524	     57.11673695	      7.95289722	     34.86217097	    125.32073945	     86.72555331
